<?xml version="1.0" encoding="UTF-8"?>
<svg width="20px" height="18px" viewBox="0 0 20 18" version="1.1" xmlns="http://www.w3.org/2000/svg" xmlns:xlink="http://www.w3.org/1999/xlink">
    <!-- Generator: Sketch 46.1 (44463) - http://www.bohemiancoding.com/sketch -->
    <title>Icon 24px</title>
    <desc>Created with Sketch.</desc>
    <defs></defs>
    <g id="Welcome" stroke="none" stroke-width="1" fill="none" fill-rule="evenodd">
        <g id="MITFAHRGELEGENHEITEN-#DESK-#1ZIEL" transform="translate(-352.000000, -825.000000)">
            <g id="LEGENDE-/-FILTER-_-ALTERNATIV-Copy-2" transform="translate(139.000000, 794.000000)">
                <g id="FAHRRAD-Copy" transform="translate(201.000000, 18.000000)">
                    <g id="ic_directions_bike" transform="translate(12.000000, 12.000000)">
                        <g id="Icon-24px">
                            <polygon id="Shape" points="0 0 20 0 20 20 0 20"></polygon>
                            <path d="M12.9166667,4.58333333 C13.8333333,4.58333333 14.5833333,3.83333333 14.5833333,2.91666667 C14.5833333,2 13.8333333,1.25 12.9166667,1.25 C12,1.25 11.25,2 11.25,2.91666667 C11.25,3.83333333 12,4.58333333 12.9166667,4.58333333 L12.9166667,4.58333333 Z M4.16666667,10 C1.83333333,10 0,11.8333333 0,14.1666667 C0,16.5 1.83333333,18.3333333 4.16666667,18.3333333 C6.5,18.3333333 8.33333333,16.5 8.33333333,14.1666667 C8.33333333,11.8333333 6.5,10 4.16666667,10 L4.16666667,10 Z M4.16666667,17.0833333 C2.58333333,17.0833333 1.25,15.75 1.25,14.1666667 C1.25,12.5833333 2.58333333,11.25 4.16666667,11.25 C5.75,11.25 7.08333333,12.5833333 7.08333333,14.1666667 C7.08333333,15.75 5.75,17.0833333 4.16666667,17.0833333 L4.16666667,17.0833333 Z M9,8.75 L11,6.75 L11.6666667,7.41666667 C12.75,8.5 14.1666667,9.16666667 15.9166667,9.16666667 L15.9166667,7.5 C14.6666667,7.5 13.6666667,7 12.9166667,6.25 L11.3333333,4.66666667 C10.9166667,4.33333333 10.5,4.16666667 10,4.16666667 C9.5,4.16666667 9.08333333,4.33333333 8.83333333,4.66666667 L6.5,7 C6.16666667,7.33333333 6,7.75 6,8.16666667 C6,8.66666667 6.16666667,9.08333333 6.5,9.33333333 L9.16666667,11.6666667 L9.16666667,15.8333333 L10.8333333,15.8333333 L10.8333333,10.6666667 L9,8.75 L9,8.75 Z M15.8333333,10 C13.5,10 11.6666667,11.8333333 11.6666667,14.1666667 C11.6666667,16.5 13.5,18.3333333 15.8333333,18.3333333 C18.1666667,18.3333333 20,16.5 20,14.1666667 C20,11.8333333 18.1666667,10 15.8333333,10 L15.8333333,10 Z M15.8333333,17.0833333 C14.25,17.0833333 12.9166667,15.75 12.9166667,14.1666667 C12.9166667,12.5833333 14.25,11.25 15.8333333,11.25 C17.4166667,11.25 18.75,12.5833333 18.75,14.1666667 C18.75,15.75 17.4166667,17.0833333 15.8333333,17.0833333 L15.8333333,17.0833333 Z" id="Shape" fill="#FFFFFF"></path>
                        </g>
                    </g>
                </g>
            </g>
        </g>
    </g>
</svg>