<!-- Generated by IcoMoon.io -->
<svg version="1.1" xmlns="http://www.w3.org/2000/svg" width="32" height="32" viewBox="0 0 32 32">
<title>direction-feed</title>
<path d="M17.263 6.035c1.544 0 2.807-1.263 2.807-2.807s-1.263-2.807-2.807-2.807c-1.544 0-2.807 1.263-2.807 2.807s1.263 2.807 2.807 2.807v0zM12.070 10.807l-3.93 19.789h2.947l2.526-11.228 2.947 2.807v8.421h2.807v-10.526l-2.947-2.807 0.842-4.211c1.825 2.105 4.632 3.509 7.719 3.509v-2.807c-2.667 0-4.912-1.403-6.035-3.368l-1.404-2.246c-0.561-0.842-1.404-1.404-2.386-1.404-0.421 0-0.702 0.14-1.123 0.14l-7.298 3.088v6.596h2.807v-4.772l2.526-0.982z"></path>
</svg>
