<!-- Generated by IcoMoon.io -->
<svg version="1.1" xmlns="http://www.w3.org/2000/svg" width="32" height="32" viewBox="0 0 32 32">
<title>directions-bus</title>
<path d="M2.526 23.579c0 1.516 0.674 2.863 1.684 3.705v3.032c0 1.011 0.674 1.684 1.684 1.684h1.684c1.011 0 1.684-0.674 1.684-1.684v-1.684h13.474v1.684c0 1.011 0.674 1.684 1.684 1.684h1.684c1.011 0 1.684-0.674 1.684-1.684v-3.032c1.011-0.842 1.684-2.189 1.684-3.705v-16.842c0-5.895-6.063-6.737-13.474-6.737s-13.474 0.842-13.474 6.737v16.842zM8.421 25.263c-1.347 0-2.526-1.179-2.526-2.526s1.179-2.526 2.526-2.526c1.347 0 2.526 1.179 2.526 2.526s-1.179 2.526-2.526 2.526v0zM23.579 25.263c-1.347 0-2.526-1.179-2.526-2.526s1.179-2.526 2.526-2.526c1.347 0 2.526 1.179 2.526 2.526s-1.179 2.526-2.526 2.526v0zM26.105 15.158h-20.211v-8.421h20.211v8.421z"></path>
</svg>
