<!-- Generated by IcoMoon.io -->
<svg version="1.1" xmlns="http://www.w3.org/2000/svg" width="32" height="32" viewBox="0 0 32 32">
<title>directions-car</title>
<path d="M28.302 3.573c-0.356-1.049-1.351-1.796-2.524-1.796h-19.556c-1.173 0-2.151 0.747-2.524 1.796l-3.698 10.649v14.222c0 0.978 0.8 1.778 1.778 1.778h1.778c0.978 0 1.778-0.8 1.778-1.778v-1.778h21.333v1.778c0 0.978 0.8 1.778 1.778 1.778h1.778c0.978 0 1.778-0.8 1.778-1.778v-14.222l-3.698-10.649zM6.222 21.333c-1.476 0-2.667-1.191-2.667-2.667s1.191-2.667 2.667-2.667c1.476 0 2.667 1.191 2.667 2.667s-1.191 2.667-2.667 2.667v0zM25.778 21.333c-1.476 0-2.667-1.191-2.667-2.667s1.191-2.667 2.667-2.667c1.476 0 2.667 1.191 2.667 2.667s-1.191 2.667-2.667 2.667v0zM3.556 12.444l2.667-8h19.556l2.667 8h-24.889z"></path>
</svg>
