<?xml version="1.0" encoding="UTF-8"?>
<svg width="35px" height="50px" viewBox="0 0 35 50" version="1.1" xmlns="http://www.w3.org/2000/svg" xmlns:xlink="http://www.w3.org/1999/xlink">
    <!-- Generator: Sketch 53.2 (72643) - https://sketchapp.com -->
    <title>PIN BUS SMALL</title>
    <desc>Created with Sketch.</desc>
    <g id="Page-1" stroke="none" stroke-width="1" fill="none" fill-rule="evenodd">
        <g id="darkgreen" transform="translate(-277.000000, 0.000000)">
            <g id="PIN-BUS-SMALL" transform="translate(277.000000, 0.000000)">
                <path d="M17.5,0 C7.75,0 0,7.75 0,17.5 C0,30.5 17.5,50 17.5,50 C17.5,50 35,30.5 35,17.5 C35,7.75 27.25,0 17.5,0 L17.5,0 Z" id="Shape" fill="#009640"></path>
                <g id="directions-bus" transform="translate(11.000000, 10.000000)" fill="#FFFFFF">
                    <path d="M0,11.5739269 C0,12.317965 0.329411765,12.9793323 0.823529412,13.3926868 L0.823529412,14.8807631 C0.823529412,15.3767886 1.15294118,15.7074722 1.64705882,15.7074722 L2.47058824,15.7074722 C2.96470588,15.7074722 3.29411765,15.3767886 3.29411765,14.8807631 L3.29411765,14.0540541 L9.88235294,14.0540541 L9.88235294,14.8807631 C9.88235294,15.3767886 10.2117647,15.7074722 10.7058824,15.7074722 L11.5294118,15.7074722 C12.0235294,15.7074722 12.3529412,15.3767886 12.3529412,14.8807631 L12.3529412,13.3926868 C12.8470588,12.9793323 13.1764706,12.317965 13.1764706,11.5739269 L13.1764706,3.30683625 C13.1764706,0.413354531 10.2117647,0 6.58823529,0 C2.96470588,0 0,0.413354531 0,3.30683625 L0,11.5739269 L0,11.5739269 Z M2.88235294,12.4006359 C2.22352941,12.4006359 1.64705882,11.8219396 1.64705882,11.1605723 C1.64705882,10.4992051 2.22352941,9.92050874 2.88235294,9.92050874 C3.54117647,9.92050874 4.11764706,10.4992051 4.11764706,11.1605723 C4.11764706,11.8219396 3.54117647,12.4006359 2.88235294,12.4006359 L2.88235294,12.4006359 Z M10.2941176,12.4006359 C9.63529412,12.4006359 9.05882353,11.8219396 9.05882353,11.1605723 C9.05882353,10.4992051 9.63529412,9.92050874 10.2941176,9.92050874 C10.9529412,9.92050874 11.5294118,10.4992051 11.5294118,11.1605723 C11.5294118,11.8219396 10.9529412,12.4006359 10.2941176,12.4006359 L10.2941176,12.4006359 Z M11.5294118,7.44038156 L1.64705882,7.44038156 L1.64705882,3.30683625 L11.5294118,3.30683625 L11.5294118,7.44038156 L11.5294118,7.44038156 Z" id="Shape"></path>
                </g>
            </g>
        </g>
    </g>
</svg>