<?xml version="1.0" encoding="UTF-8"?>
<svg width="36px" height="50px" viewBox="0 0 36 50" version="1.1" xmlns="http://www.w3.org/2000/svg" xmlns:xlink="http://www.w3.org/1999/xlink">
    <!-- Generator: Sketch 53.2 (72643) - https://sketchapp.com -->
    <title>PIN BIKE SMALL</title>
    <desc>Created with Sketch.</desc>
    <g id="Page-1" stroke="none" stroke-width="1" fill="none" fill-rule="evenodd">
        <g id="green" transform="translate(-752.000000, 0.000000)">
            <g id="PIN-BIKE-SMALL" transform="translate(752.000000, 0.000000)">
                <path d="M17.5675676,0 C7.77992278,0 0,7.75 0,17.5 C0,30.5 17.5675676,50 17.5675676,50 C17.5675676,50 35.1351351,30.5 35.1351351,17.5 C35.1351351,7.75 27.3552124,0 17.5675676,0 L17.5675676,0 Z" id="Shape" fill="#64B432"></path>
                <path d="M20.3333333,12.55 C21.0416667,12.55 21.6083333,11.9833333 21.6083333,11.275 C21.6083333,10.5666667 21.0416667,10 20.3333333,10 C19.625,10 19.0583333,10.5666667 19.0583333,11.275 C19.0583333,11.9833333 19.625,12.55 20.3333333,12.55 L20.3333333,12.55 Z M22.4583333,17.65 C20.475,17.65 18.9166667,19.2083333 18.9166667,21.1916667 C18.9166667,23.175 20.475,24.7333333 22.4583333,24.7333333 C24.4416667,24.7333333 26,23.175 26,21.1916667 C26,19.2083333 24.4416667,17.65 22.4583333,17.65 L22.4583333,17.65 Z M22.4583333,23.6708333 C21.1125,23.6708333 19.9791667,22.5375 19.9791667,21.1916667 C19.9791667,19.8458333 21.1125,18.7125 22.4583333,18.7125 C23.8041667,18.7125 24.9375,19.8458333 24.9375,21.1916667 C24.9375,22.5375 23.8041667,23.6708333 22.4583333,23.6708333 L22.4583333,23.6708333 Z M19.4833333,16.2333333 L22.4583333,16.2333333 L22.4583333,14.9583333 L20.1916667,14.9583333 L18.8458333,12.6208333 C18.6333333,12.2666667 18.2791667,12.0541667 17.7833333,12.0541667 C17.4291667,12.0541667 17.1458333,12.1958333 16.9333333,12.4083333 L14.3125,15.0291667 C14.1,15.2416667 13.9583333,15.525 13.9583333,15.8791667 C13.9583333,16.3041667 14.1708333,16.7291667 14.525,16.9416667 L16.9333333,18.3583333 L16.9333333,21.9 L18.2083333,21.9 L18.2083333,17.2958333 L16.65,16.0916667 L18.2791667,14.4625 L19.4833333,16.2333333 L19.4833333,16.2333333 Z M12.5416667,17.65 C10.5583333,17.65 9,19.2083333 9,21.1916667 C9,23.175 10.5583333,24.7333333 12.5416667,24.7333333 C14.525,24.7333333 16.0833333,23.175 16.0833333,21.1916667 C16.0833333,19.2083333 14.525,17.65 12.5416667,17.65 L12.5416667,17.65 Z M12.5416667,23.6708333 C11.1958333,23.6708333 10.0625,22.5375 10.0625,21.1916667 C10.0625,19.8458333 11.1958333,18.7125 12.5416667,18.7125 C13.8875,18.7125 15.0208333,19.8458333 15.0208333,21.1916667 C15.0208333,22.5375 13.8875,23.6708333 12.5416667,23.6708333 L12.5416667,23.6708333 Z" id="Shape" fill="#FFFFFF"></path>
            </g>
        </g>
    </g>
</svg>