<?xml version="1.0" encoding="UTF-8"?>
<svg width="36px" height="50px" viewBox="0 0 36 50" version="1.1" xmlns="http://www.w3.org/2000/svg" xmlns:xlink="http://www.w3.org/1999/xlink">
    <!-- Generator: Sketch 53.2 (72643) - https://sketchapp.com -->
    <title>PIN CAR SMALL</title>
    <desc>Created with Sketch.</desc>
    <g id="Page-1" stroke="none" stroke-width="1" fill="none" fill-rule="evenodd">
        <g id="darkred" transform="translate(-511.000000, 0.000000)">
            <g id="PIN-CAR-SMALL" transform="translate(511.000000, 0.000000)">
                <path d="M17.5675676,0 C7.77992278,0 0,7.75 0,17.5 C0,30.5 17.5675676,50 17.5675676,50 C17.5675676,50 35.1351351,30.5 35.1351351,17.5 C35.1351351,7.75 27.3552124,0 17.5675676,0 L17.5675676,0 Z" id="Shape" fill="#BE0F0F"></path>
                <g id="directions-car-copy-15" transform="translate(10.000000, 11.000000)" fill="#FFFFFF">
                    <path d="M13.25,0.833333333 C13.0833333,0.333333333 12.5833333,0 12.0833333,0 L2.91666667,0 C2.33333333,0 1.91666667,0.333333333 1.75,0.833333333 L0,5.83333333 L0,12.5 C0,13 0.333333333,13.3333333 0.833333333,13.3333333 L1.66666667,13.3333333 C2.16666667,13.3333333 2.5,13 2.5,12.5 L2.5,11.6666667 L12.5,11.6666667 L12.5,12.5 C12.5,13 12.8333333,13.3333333 13.3333333,13.3333333 L14.1666667,13.3333333 C14.6666667,13.3333333 15,13 15,12.5 L15,5.83333333 L13.25,0.833333333 L13.25,0.833333333 Z M2.91666667,9.16666667 C2.25,9.16666667 1.66666667,8.58333333 1.66666667,7.91666667 C1.66666667,7.25 2.25,6.66666667 2.91666667,6.66666667 C3.58333333,6.66666667 4.16666667,7.25 4.16666667,7.91666667 C4.16666667,8.58333333 3.58333333,9.16666667 2.91666667,9.16666667 L2.91666667,9.16666667 Z M12.0833333,9.16666667 C11.4166667,9.16666667 10.8333333,8.58333333 10.8333333,7.91666667 C10.8333333,7.25 11.4166667,6.66666667 12.0833333,6.66666667 C12.75,6.66666667 13.3333333,7.25 13.3333333,7.91666667 C13.3333333,8.58333333 12.75,9.16666667 12.0833333,9.16666667 L12.0833333,9.16666667 Z M1.66666667,5 L2.91666667,1.25 L12.0833333,1.25 L13.3333333,5 L1.66666667,5 L1.66666667,5 Z" id="Shape"></path>
                </g>
            </g>
        </g>
    </g>
</svg>