<?xml version="1.0" encoding="UTF-8"?>
<svg width="36px" height="50px" viewBox="0 0 36 50" version="1.1" xmlns="http://www.w3.org/2000/svg" xmlns:xlink="http://www.w3.org/1999/xlink">
    <!-- Generator: Sketch 53.2 (72643) - https://sketchapp.com -->
    <title>PIN SONSTIGES SMALL</title>
    <desc>Created with Sketch.</desc>
    <g id="Page-1" stroke="none" stroke-width="1" fill="none" fill-rule="evenodd">
        <g id="darkred" transform="translate(-919.000000, 0.000000)">
            <g id="PIN-SONSTIGES-SMALL" transform="translate(919.000000, 0.000000)">
                <path d="M17.5675676,0 C7.77992278,0 0,7.75 0,17.5 C0,30.5 17.5675676,50 17.5675676,50 C17.5675676,50 35.1351351,30.5 35.1351351,17.5 C35.1351351,7.75 27.3552124,0 17.5675676,0 L17.5675676,0 Z" id="Shape" fill="#BE0F0F"></path>
                <path d="M19.4311927,12.4440367 C20.1100918,12.4440367 20.6532111,11.9009175 20.6532111,11.2220184 C20.6532111,10.5431193 20.1100918,10 19.4311927,10 C18.7522936,10 18.2091744,10.5431193 18.2091744,11.2220184 C18.2091744,11.9009175 18.7522936,12.4440367 19.4311927,12.4440367 L19.4311927,12.4440367 Z M19.4990826,16.6532111 L22.8256882,16.6532111 L22.8256882,15.4311927 L20.3816515,15.4311927 L19.0238533,13.1908257 C18.8201835,12.8513762 18.4128441,12.5798165 18.0055046,12.5798165 C17.8697248,12.5798165 17.8018349,12.5798165 17.6660551,12.6477065 L14,13.8018349 L14,17.3321102 L15.2220184,17.3321102 L15.2220184,14.8201835 L16.6477065,14.3449542 L14,24.8000002 L15.2220184,24.8000002 L17.1908257,19.3009176 L18.7522936,21.4055047 L18.7522936,24.8000002 L19.974312,24.8000002 L19.974312,20.455046 L18.2770643,17.4000001 L18.7522936,15.4311927 L19.4990826,16.6532111 L19.4990826,16.6532111 Z" id="Shape" fill="#FFFFFF"></path>
            </g>
        </g>
    </g>
</svg>