<?xml version="1.0" encoding="UTF-8"?>
<svg width="35px" height="50px" viewBox="0 0 35 50" version="1.1" xmlns="http://www.w3.org/2000/svg" xmlns:xlink="http://www.w3.org/1999/xlink">
    <!-- Generator: Sketch 53.2 (72643) - https://sketchapp.com -->
    <title>PIN BUS SMALL Copy</title>
    <desc>Created with Sketch.</desc>
    <g id="Page-1" stroke="none" stroke-width="1" fill="none" fill-rule="evenodd">
        <g id="cyan" transform="translate(-331.000000, 0.000000)">
            <g id="PIN-BUS-SMALL-Copy" transform="translate(331.000000, 0.000000)">
                <path d="M0,17.5 C0,30.5 17.5,50 17.5,50 C17.5,50 35,30.5 35,17.5 C35,7.75 27.25,0 17.5,0 C7.75,0 0,7.75 0,17.5 Z" id="Shape" fill="#24B4B4"></path>
                <path d="M11,22.14375 C11,23.735 12.34,25.075 13.93125,25.075 L12.675,26.33125 L12.675,26.75 L22.725,26.75 L22.725,26.33125 L21.46875,25.075 C23.06,25.075 24.4,23.735 24.4,22.14375 L24.4,13.35 C24.4,10.41875 21.385,10 17.7,10 C14.015,10 11,10.41875 11,13.35 L11,22.14375 L11,22.14375 Z M17.7,23.4 C16.77875,23.4 16.025,22.64625 16.025,21.725 C16.025,20.80375 16.77875,20.05 17.7,20.05 C18.62125,20.05 19.375,20.80375 19.375,21.725 C19.375,22.64625 18.62125,23.4 17.7,23.4 L17.7,23.4 Z M22.725,17.5375 L12.675,17.5375 L12.675,13.35 L22.725,13.35 L22.725,17.5375 L22.725,17.5375 Z" id="Shape" fill="#FFFFFF"></path>
            </g>
        </g>
    </g>
</svg>